<svg xmlns="http://www.w3.org/2000/svg" width="29.999" height="32" viewBox="0 0 29.999 32">
  <g id="Layer_1_1_" transform="translate(-2.511 -1.011)">
    <path id="Path_1032" data-name="Path 1032" d="M21.054,32.434l.275,1.305,7.832-1.648-.275-1.305-3.263.686-1.246-5.92a5.164,5.164,0,0,0,3.312-6.123L24.16,5.2,16.3,6.852l.3-1.741L7.512,3.2,3.982,17.429a5.164,5.164,0,0,0,3.312,6.123l-1.246,5.92-3.263-.686L2.511,30.09l7.832,1.648.275-1.305-3.263-.687L8.6,23.826c.139.011.278.022.416.022A5.179,5.179,0,0,0,14.1,19.557l1.564-9.021,1.912,11.022a5.179,5.179,0,0,0,5.083,4.291c.138,0,.277-.011.416-.022l1.246,5.92ZM8.5,4.769l6.572,1.383-1.1,6.358-.486-.486a3.18,3.18,0,0,0-3.436-.7,1.854,1.854,0,0,1-2.169-.609l-.64-.853Zm2.659,17.082a3.838,3.838,0,0,1-5.879-4.1l1.544-6.225a3.188,3.188,0,0,0,3.719,1.031,1.849,1.849,0,0,1,2,.41l1.151,1.151-.9,5.213A3.806,3.806,0,0,1,11.156,21.851ZM23.175,6.77l1.179,4.755-1.148.861a1.553,1.553,0,0,1-1.635.147,2.892,2.892,0,0,0-3.342.542l-.66.66L16.6,8.153ZM20.516,23.851a3.8,3.8,0,0,1-1.627-2.521L17.85,15.342l1.324-1.324a1.557,1.557,0,0,1,1.8-.292,2.877,2.877,0,0,0,3.031-.273l.7-.522,1.691,6.821a3.837,3.837,0,0,1-5.879,4.1Z" transform="translate(0 -0.728)" fill="#fff"/>
    <path id="Path_1033" data-name="Path 1033" d="M44.159,5.013V3.679a2.671,2.671,0,0,1-2.668-2.668H40.157a2.671,2.671,0,0,1-2.668,2.668V5.013a2.671,2.671,0,0,1,2.668,2.668h1.334A2.671,2.671,0,0,1,44.159,5.013Zm-3.335.458A4.043,4.043,0,0,0,39.7,4.346a4.043,4.043,0,0,0,1.125-1.125,4.043,4.043,0,0,0,1.125,1.125A4.034,4.034,0,0,0,40.824,5.471Z" transform="translate(-11.649)" fill="#fff"/>
    <path id="Path_1034" data-name="Path 1034" d="M17.157,35.011a2.671,2.671,0,0,1-2.668,2.668v1.334a2.671,2.671,0,0,1,2.668,2.668h1.334a2.671,2.671,0,0,1,2.668-2.668V37.679a2.671,2.671,0,0,1-2.668-2.668Zm.667,4.46A4.043,4.043,0,0,0,16.7,38.346a4.043,4.043,0,0,0,1.125-1.125,4.043,4.043,0,0,0,1.125,1.125A4.034,4.034,0,0,0,17.824,39.471Z" transform="translate(-3.989 -11.323)" fill="#fff"/>
    <rect id="Rectangle_340" data-name="Rectangle 340" width="1.334" height="1.334" transform="translate(22.505 19.686)" fill="#fff"/>
    <rect id="Rectangle_341" data-name="Rectangle 341" width="1.334" height="1.334" transform="translate(19.838 17.018)" fill="#fff"/>
    <rect id="Rectangle_342" data-name="Rectangle 342" width="1.334" height="1.334" transform="translate(22.505 15.017)" fill="#fff"/>
    <rect id="Rectangle_343" data-name="Rectangle 343" width="1.334" height="1.334" transform="translate(7.165 17.685)" fill="#fff"/>
    <rect id="Rectangle_344" data-name="Rectangle 344" width="1.334" height="1.334" transform="translate(10.5 14.35)" fill="#fff"/>
  </g>
</svg>
