<svg xmlns="http://www.w3.org/2000/svg" width="15.484" height="32" viewBox="0 0 15.484 32">
  <g id="iconfinder_WHISKEY_1188710" transform="translate(-17 -1)">
    <g id="Group_269" data-name="Group 269" transform="translate(17 4.097)">
      <path id="Path_1029" data-name="Path 1029" d="M30.935,35.9H18.548A1.521,1.521,0,0,1,17,34.355V15.774a3.22,3.22,0,0,1,1.187-2.426L22.161,9.89V7h1.032v3.355L18.91,14.123a2.117,2.117,0,0,0-.877,1.652V34.355a.488.488,0,0,0,.516.516H30.935a.488.488,0,0,0,.516-.516V15.774a2.308,2.308,0,0,0-.877-1.7L26.29,10.355V7h1.032V9.839L31.3,13.3a3.173,3.173,0,0,1,1.187,2.477V34.355A1.521,1.521,0,0,1,30.935,35.9Z" transform="translate(-17 -7)" fill="#fff"/>
    </g>
    <g id="Group_270" data-name="Group 270" transform="translate(17.355 13.931)">
      <rect id="Rectangle_333" data-name="Rectangle 333" width="15.019" height="1.032" transform="translate(0 4.127) rotate(-15.95)" fill="#fff"/>
    </g>
    <g id="Group_271" data-name="Group 271" transform="translate(17.355 23.737)">
      <rect id="Rectangle_334" data-name="Rectangle 334" width="15.019" height="1.032" transform="translate(0 4.127) rotate(-15.95)" fill="#fff"/>
    </g>
    <g id="Group_272" data-name="Group 272" transform="translate(20.449 19.601)">
      <rect id="Rectangle_335" data-name="Rectangle 335" width="8.671" height="1.032" transform="matrix(0.954, -0.298, 0.298, 0.954, 0, 2.587)" fill="#fff"/>
    </g>
    <g id="Group_273" data-name="Group 273" transform="translate(27.15 21.669)">
      <rect id="Rectangle_336" data-name="Rectangle 336" width="1.652" height="1.032" transform="translate(0 0.523) rotate(-18.451)" fill="#fff"/>
    </g>
    <g id="Group_274" data-name="Group 274" transform="translate(19.065 10.445)">
      <path id="Path_1030" data-name="Path 1030" d="M22.032,28.435H21V21.519L23.219,19.3l.723.723-1.91,1.91Z" transform="translate(-21 -19.3)" fill="#fff"/>
    </g>
    <g id="Group_275" data-name="Group 275" transform="translate(29.571 29.571)">
      <rect id="Rectangle_337" data-name="Rectangle 337" width="1" height="1" transform="translate(0.429 0.429)" fill="#fff"/>
    </g>
    <g id="Group_276" data-name="Group 276" transform="translate(29.571 27.286)">
      <rect id="Rectangle_338" data-name="Rectangle 338" width="1" height="1" transform="translate(0.429 -0.286)" fill="#fff"/>
    </g>
    <g id="Group_277" data-name="Group 277" transform="translate(29.571 26.143)">
      <rect id="Rectangle_339" data-name="Rectangle 339" width="1" height="1" transform="translate(0.429 -0.143)" fill="#fff"/>
    </g>
    <g id="Group_278" data-name="Group 278" transform="translate(21.645 1)">
      <path id="Path_1031" data-name="Path 1031" d="M31.161,4.613H27.032A1.035,1.035,0,0,1,26,3.581V2.032A1.035,1.035,0,0,1,27.032,1h4.129a1.035,1.035,0,0,1,1.032,1.032V3.581A1.035,1.035,0,0,1,31.161,4.613ZM27.032,2.032V3.581h4.129V2.032Zm4.129,0h0Z" transform="translate(-26 -1)" fill="#fff"/>
    </g>
  </g>
</svg>
