<svg xmlns="http://www.w3.org/2000/svg" width="17.622" height="32" viewBox="0 0 17.622 32">
  <g id="iconfinder_Artboard_16_copy_4137965" transform="translate(-23 -3.23)">
    <path id="Path_1022" data-name="Path 1022" d="M31.549,35.23H23.581a.581.581,0,0,1-.581-.58V18.136a3.994,3.994,0,0,1,2.214-3.674.377.377,0,0,0,.215-.354V4.617A1.388,1.388,0,0,1,26.818,3.23h1.5a1.388,1.388,0,0,1,1.389,1.387v9.508a.366.366,0,0,0,.215.354,4,4,0,0,1,2.214,3.674v16.5a.581.581,0,0,1-.587.58Zm-7.387-1.161h6.806V18.136a2.883,2.883,0,0,0-1.441-2.583h0a1.515,1.515,0,0,1-.988-1.428V4.617a.227.227,0,0,0-.227-.226h-1.5a.221.221,0,0,0-.227.226v9.508A1.527,1.527,0,0,1,25.6,15.57a2.836,2.836,0,0,0-1.435,2.566Z" fill="#490000"/>
    <path id="Path_1023" data-name="Path 1023" d="M30.667,14.162H27.761a.581.581,0,0,1,0-1.162h2.906a.581.581,0,0,1,0,1.162Z" transform="translate(-1.751 -4.099)" fill="#490000"/>
    <path id="Path_1024" data-name="Path 1024" d="M27.183,40.523h-3.2a.581.581,0,0,1,0-1.162H26.6V33.682H23.981a.581.581,0,0,1,0-1.162h3.2a.581.581,0,0,1,.581.581v6.84A.581.581,0,0,1,27.183,40.523Z" transform="translate(-0.168 -12.296)" fill="#490000"/>
    <path id="Path_1025" data-name="Path 1025" d="M37.29,28.649A6.463,6.463,0,0,0,37,30.631c0,3.034,2.005,5.492,4.475,5.492s4.469-2.458,4.469-5.492a6.645,6.645,0,0,0-.3-1.983Z" transform="translate(-5.886 -10.67)" fill="#fff"/>
    <path id="Path_1026" data-name="Path 1026" d="M41.026,36.286c-2.79,0-5.056-2.726-5.056-6.073a7.108,7.108,0,0,1,.331-2.156.581.581,0,0,1,.581-.407h8.311a.581.581,0,0,1,.552.407,7.137,7.137,0,0,1,.331,2.156C46.077,33.56,43.81,36.286,41.026,36.286ZM37.3,28.812a5.957,5.957,0,0,0-.151,1.4c0,2.708,1.744,4.911,3.894,4.911s3.888-2.2,3.888-4.911a5.957,5.957,0,0,0-.163-1.4Z" transform="translate(-5.455 -10.252)" fill="#490000"/>
    <path id="Path_1027" data-name="Path 1027" d="M45.083,50.938H38.225a.582.582,0,0,1-.32-1.081L40.335,48.4V41.221a.581.581,0,1,1,1.162,0v7.555a.581.581,0,0,1-.285.5l-.878.523h2.639l-.878-.523a.581.581,0,0,1-.285-.5V41.221a.581.581,0,0,1,1.162,0V48.4L45.4,49.857a.582.582,0,0,1-.314,1.081Z" transform="translate(-6.147 -15.709)" fill="#490000"/>
    <path id="Path_1028" data-name="Path 1028" d="M45.415,33.682H36.651a.581.581,0,0,1,0-1.162h8.764a.581.581,0,0,1,0,1.162Z" transform="translate(-5.496 -12.29)" fill="#490000"/>
  </g>
</svg>
