<svg xmlns="http://www.w3.org/2000/svg" width="151.308" height="79" viewBox="0 0 151.308 79">
  <g id="Layer_2" transform="translate(0 0)">
    <g id="Group_1" data-name="Group 1" transform="translate(0 0)">
      <path id="Path_1" data-name="Path 1" d="M64.421,40.743a1.144,1.144,0,0,1,.629.4.822.822,0,0,1,.172.712,1.047,1.047,0,0,1-.429.626Q56.9,48.114,50.354,53.123a9.008,9.008,0,0,1,.143,4.554A28.2,28.2,0,0,1,47.524,65.7a33.8,33.8,0,0,1-4.946,6.859A45.667,45.667,0,0,1,36.716,77.8a30.559,30.559,0,0,1-5.861,3.5,14.6,14.6,0,0,1-4.861,1.366,4.315,4.315,0,0,1-.572.057c-1.63,0-2.659-.6-3.116-1.821-.772-2.135,1.029-5.635,5.461-10.5S38.917,59.583,47.952,52.525c-1.029-1.85-3.031-3.586-6-5.151-3-1.565-7.72-3.671-14.181-6.261-1.773-.712-3.116-1.281-4.089-1.679a9.811,9.811,0,0,1-5.089-4.1,7.321,7.321,0,0,1-.343-5.948c.886-2.846,3.031-5.92,6.433-9.25A66.182,66.182,0,0,1,48.01,5.395c4.089-1.48,7.262-1.992,9.521-1.48a5.423,5.423,0,0,1,1.4.484,4.916,4.916,0,0,1,1.287,1,3.98,3.98,0,0,1,.944,1.793,7.59,7.59,0,0,1,.086,2.7,1.3,1.3,0,0,1-.2.455,1.09,1.09,0,0,1-.4.313,1.069,1.069,0,0,1-.515.057.964.964,0,0,1-.658-.37.98.98,0,0,1-.2-.74,3.434,3.434,0,0,0-.343-2.675,3.034,3.034,0,0,0-1.8-1.053,11.2,11.2,0,0,0-5.089.313,40.022,40.022,0,0,0-7.148,2.561,61.534,61.534,0,0,0-8.034,4.44,58.768,58.768,0,0,0-11.122,8.6c-2.974,3.017-4.861,5.721-5.6,8.168-1.115,3.472.315,6.062,4.346,7.713.915.37,2.287.911,4.089,1.622,2.23.911,3.917,1.594,5,2.049s2.516,1.053,4.289,1.821,3.116,1.423,4.089,1.964c.944.541,2,1.167,3.116,1.878a17.992,17.992,0,0,1,2.745,2.106,9.933,9.933,0,0,1,1.773,2.22c4.289-3.3,8.978-6.774,14.124-10.388A.749.749,0,0,1,64.421,40.743ZM48.639,57.307a7.383,7.383,0,0,0,.057-2.846A183.747,183.747,0,0,0,31.455,69.374a49.514,49.514,0,0,0-5.718,6.774c-1.315,1.992-1.858,3.33-1.573,4.1.143.4.686.569,1.687.512a13.911,13.911,0,0,0,4.26-1.281,28.272,28.272,0,0,0,5.4-3.244,48.264,48.264,0,0,0,5.518-4.838,32.046,32.046,0,0,0,4.718-6.432A27.832,27.832,0,0,0,48.639,57.307Z" transform="translate(-17.784 -3.722)"/>
      <path id="Path_2" data-name="Path 2" d="M192.287,135a1.09,1.09,0,0,1,.743.114.919.919,0,0,1,.429.6.865.865,0,0,1-.114.715c-.4.658-.858,1.344-1.315,2.059-.486.743-1.172,1.715-2.116,2.974s-1.83,2.344-2.688,3.288a16.933,16.933,0,0,1-2.745,2.459,4.532,4.532,0,0,1-2.545,1.058,1.765,1.765,0,0,1-.715-.143q-2.445-.9-1.372-7.806a20.561,20.561,0,0,1-3.059,3.46c-1.315,1.115-2.487,1.258-3.46.4-.915-.743-1.344-2.059-1.258-3.974a11.888,11.888,0,0,1,1.658-5.518.961.961,0,0,1,.6-.457,1.062,1.062,0,0,1,.772.114.963.963,0,0,1,.343,1.344,9.721,9.721,0,0,0-1.2,3,8.035,8.035,0,0,0-.2,2.63,2.228,2.228,0,0,0,.486,1.344c.172.172.486.057.972-.343a20.5,20.5,0,0,0,3.317-4.031c.229-.314.429-.543.543-.686s.257-.343.429-.572a2,2,0,0,1,.4-.429,2.388,2.388,0,0,0,.343-.229.782.782,0,0,1,.4-.114,3.549,3.549,0,0,1,.458.114,1.17,1.17,0,0,1,.715,1.144,9.459,9.459,0,0,1-.257,2.316,16.408,16.408,0,0,0-.429,4.289,14.364,14.364,0,0,0,.229,1.8q.086.343.257.343c.114.057.286.029.543-.086a5.081,5.081,0,0,0,.915-.572c.343-.286.743-.629,1.2-1.058.429-.429.944-.944,1.515-1.544s1.144-1.287,1.716-2c.572-.743,1.2-1.573,1.887-2.545s1.344-2,2-3.088A.992.992,0,0,1,192.287,135Z" transform="translate(-128.187 -97.105)"/>
      <path id="Path_3" data-name="Path 3" d="M252.3,123.518a1.042,1.042,0,0,1,.772.114.963.963,0,0,1,.343,1.344,50.745,50.745,0,0,1-3,4.832,13.137,13.137,0,0,1-2.6,2.8,3.453,3.453,0,0,1-2.6.858c-1.687-.2-3.031-2.03-4.031-5.518-.715-2.344-1.315-3.517-1.83-3.517a.543.543,0,0,0-.429.114,4.463,4.463,0,0,0-.886.915,15.985,15.985,0,0,0-1.344,2c-.486.858-1.144,2.116-1.944,3.774s-1.658,3.631-2.573,5.918a.928.928,0,0,1-.915.6.53.53,0,0,1-.2-.057.894.894,0,0,1-.772-1.058c.343-2.773,1.6-7.977,3.831-15.554.229-.772.4-1.372.515-1.773a1.323,1.323,0,0,1,.515-.6,1.107,1.107,0,0,1,.743-.086.962.962,0,0,1,.6.457.9.9,0,0,1,.057.772c-.057.229-.229.829-.515,1.773-.743,2.63-1.315,4.66-1.744,6.119a17.262,17.262,0,0,1,2.859-4.232,3.359,3.359,0,0,1,2.345-1.115,2.468,2.468,0,0,1,2.116,1.372,18.271,18.271,0,0,1,1.515,3.631c.743,2.63,1.544,3.974,2.4,4.089a2.117,2.117,0,0,0,1.515-.686,11.952,11.952,0,0,0,1.916-2.287c.686-1,1.2-1.8,1.544-2.373s.772-1.315,1.258-2.2A.848.848,0,0,1,252.3,123.518Z" transform="translate(-169.848 -85.953)"/>
      <path id="Path_4" data-name="Path 4" d="M322.584,106.714a.956.956,0,0,1,.743.057,1.125,1.125,0,0,1,.515.572.765.765,0,0,1-.057.743c-.915,1.973-1.944,4-3.117,6.061-1.144,2.087-2.43,4.174-3.8,6.29a30.585,30.585,0,0,1-4.117,5.2c-1.372,1.344-2.516,2-3.46,2a1.7,1.7,0,0,1-.658-.143c-1.4-.543-1.83-2.659-1.315-6.319a94.922,94.922,0,0,1,3.774-14.582.105.105,0,0,0-.086.029.105.105,0,0,1-.086.029,19.758,19.758,0,0,1-1.858,1.172,15.524,15.524,0,0,1-2,.915,5.635,5.635,0,0,1-2.373.457,3.746,3.746,0,0,1-2.087-.715,4.65,4.65,0,0,1-2-3.831,9.67,9.67,0,0,1,1.83-5.347,13.17,13.17,0,0,1,2.831-3.2q1.673-1.372,2.831-.6a1.685,1.685,0,0,1,.829,1.315,8.873,8.873,0,0,1-.886,3.545,61.738,61.738,0,0,1-3.4,6.862c1.058.143,2.773-.6,5.2-2.2a7.185,7.185,0,0,1,1-.629c.229-.114.486-.257.772-.372a1.078,1.078,0,0,1,.743-.143,1.37,1.37,0,0,1,.6.257q.772.6.257,2.144c-3.4,10.522-4.746,16.926-4.031,19.156.057.143.114.229.143.315.286.029.686-.2,1.258-.658a18.673,18.673,0,0,0,2.087-2.23c.829-1.029,1.744-2.23,2.716-3.66s2.03-3.174,3.2-5.261c1.172-2.059,2.316-4.289,3.4-6.633A.957.957,0,0,1,322.584,106.714Zm-19.814-3.46a3.635,3.635,0,0,0,.2,2.859c2.487-4.317,3.8-7.234,3.974-8.778a6.566,6.566,0,0,0-1.4,1.172,16.129,16.129,0,0,0-1.63,2.116A9.934,9.934,0,0,0,302.771,103.254Z" transform="translate(-220.174 -69.268)"/>
      <path id="Path_5" data-name="Path 5" d="M386.164,118.565a.971.971,0,0,1,.743.114.919.919,0,0,1,.429.6,1.2,1.2,0,0,1-.114.772,43.827,43.827,0,0,1-3.431,4.66,28.478,28.478,0,0,1-4.546,4.346c-1.687,1.287-3.088,1.944-4.26,1.944a2.411,2.411,0,0,1-1.058-.2q-3.431-1.458-.715-11.98a.834.834,0,0,1,.458-.6.97.97,0,0,1,.743-.114.842.842,0,0,1,.572.457.92.92,0,0,1,.114.715,43.192,43.192,0,0,0-.886,4.317,14.966,14.966,0,0,0-.257,2.831,7.6,7.6,0,0,0,.2,1.6,2.076,2.076,0,0,0,.315.772.937.937,0,0,0,.229.172q1.33.558,4.8-2.659a34.2,34.2,0,0,0,6.033-7.348A1.48,1.48,0,0,1,386.164,118.565ZM374.9,114.591c-.972-.057-1.287-.486-.915-1.229a2.592,2.592,0,0,1,1.315-1.229c.858-.257,1.372-.057,1.515.658a1.208,1.208,0,0,1-.772,1.515A2.126,2.126,0,0,1,374.9,114.591Z" transform="translate(-271.252 -81.246)"/>
      <path id="Path_6" data-name="Path 6" d="M440.156,120.617a.907.907,0,0,1,.715.229,1.129,1.129,0,0,1,.343.686.833.833,0,0,1-.257.715q-9.907,11.537-11.322,13.3c-.572.743-1.144,1.487-1.687,2.2a12.018,12.018,0,0,1,.114,5.6,15.485,15.485,0,0,1-1.744,4.632,11.226,11.226,0,0,1-2.659,3.174A4.141,4.141,0,0,1,421,152.382a1.746,1.746,0,0,1-1.287-.515q-2.7-2.616,6.061-14.525A14.12,14.12,0,0,0,424,133.569a57.231,57.231,0,0,1-3.774-6.376,9.3,9.3,0,0,1-1.115-4.632,7.516,7.516,0,0,1,1.086-3.66,7.723,7.723,0,0,1,2.688-2.659,7.233,7.233,0,0,1,3-1.029,5.527,5.527,0,0,1,2.916.457,1.121,1.121,0,0,1,.486.6.956.956,0,0,1-.057.743.969.969,0,0,1-.572.486.955.955,0,0,1-.743-.029,4.105,4.105,0,0,0-4.031.457,5.519,5.519,0,0,0-2.8,4.746,8.284,8.284,0,0,0,1.058,4,58.353,58.353,0,0,0,3.46,5.775,15.9,15.9,0,0,1,1.572,3q.429-.515.858-1.115c.943-1.2,4.746-5.633,11.379-13.352A1.319,1.319,0,0,1,440.156,120.617ZM424.287,147.55a12.207,12.207,0,0,0,2-7.491,53.879,53.879,0,0,0-3.431,5.461,18.656,18.656,0,0,0-1.573,3.431,2.932,2.932,0,0,0-.172,1.458,2.943,2.943,0,0,0,1.372-.8A11.136,11.136,0,0,0,424.287,147.55Z" transform="translate(-305.038 -83.675)"/>
      <path id="Path_7" data-name="Path 7" d="M500.906,113.6a.96.96,0,0,1,.743.143.815.815,0,0,1,.372.629,1.155,1.155,0,0,1-.143.715c-3.831,5.375-7.348,9.178-10.493,11.408a6.405,6.405,0,0,1-3.717,1.315,4.146,4.146,0,0,1-2.487-.772,4.587,4.587,0,0,1-1.086-1.229,7.8,7.8,0,0,1-.829-2.144,10.429,10.429,0,0,1-.114-3.631,25.236,25.236,0,0,1,1.144-5.089v-.057a24.128,24.128,0,0,1,3.46-7.348c1.372-1.8,2.573-2.716,3.66-2.745a1.388,1.388,0,0,1,1.515,1.029c.372.972-.057,2.373-1.315,4.174a31.93,31.93,0,0,1-5.547,5.8,26.578,26.578,0,0,0-.858,3.66,11.889,11.889,0,0,0-.172,2.688,7.536,7.536,0,0,0,.343,1.744,5.194,5.194,0,0,0,.515,1.058,2.792,2.792,0,0,0,.486.515c1.029.743,2.316.543,3.917-.6q4.5-3.174,9.979-10.922A.982.982,0,0,1,500.906,113.6Zm-9.864-6.6c-1.2.743-2.373,2.373-3.517,4.832A14.049,14.049,0,0,0,491.042,107Z" transform="translate(-350.721 -76.083)"/>
    </g>
    <g id="Group_2" data-name="Group 2" transform="translate(48.043 62.705)">
      <path id="Path_8" data-name="Path 8" d="M214.26,229.7v5.564h-.487l-3.582-4.52v4.52H209.6V229.7h.487l3.582,4.52V229.7Z" transform="translate(-209.6 -229.665)"/>
      <path id="Path_9" data-name="Path 9" d="M228.2,229.7h.591v5.564H228.2Z" transform="translate(-221.732 -229.665)"/>
      <path id="Path_10" data-name="Path 10" d="M238.016,232.417h.556v2.121a3.115,3.115,0,0,1-2.052.7,2.818,2.818,0,1,1,2.052-4.833l-.348.382a2.333,2.333,0,1,0-1.669,3.929,2.463,2.463,0,0,0,1.46-.417Z" transform="translate(-225.255 -229.6)"/>
      <path id="Path_11" data-name="Path 11" d="M257.26,229.7v5.564h-.591V232.69h-3.477v2.573H252.6V229.7h.591v2.469h3.477V229.7Z" transform="translate(-237.648 -229.665)"/>
      <path id="Path_12" data-name="Path 12" d="M270.647,230.222H268.7V229.7h4.486v.522h-1.947v5.042h-.591Z" transform="translate(-248.149 -229.665)"/>
      <path id="Path_13" data-name="Path 13" d="M288.9,232.417a2.788,2.788,0,0,1,2.921-2.817,2.724,2.724,0,0,1,2.017.8l-.382.382a2.23,2.23,0,0,0-1.634-.661,2.3,2.3,0,1,0,0,4.59,2.23,2.23,0,0,0,1.634-.661l.382.383a2.624,2.624,0,0,1-2.052.8A2.759,2.759,0,0,1,288.9,232.417Z" transform="translate(-261.325 -229.6)"/>
      <path id="Path_14" data-name="Path 14" d="M306.7,229.7h.591v5.042h3.095v.522H306.7Z" transform="translate(-272.935 -229.665)"/>
      <path id="Path_15" data-name="Path 15" d="M319.7,232.964V229.8h.591v3.164c0,1.321.626,1.912,1.7,1.912s1.7-.591,1.7-1.912V229.8h.556v3.164A2.137,2.137,0,0,1,322,235.4,2.178,2.178,0,0,1,319.7,232.964Z" transform="translate(-281.415 -229.73)"/>
      <path id="Path_16" data-name="Path 16" d="M342.525,233.768c0,.939-.7,1.5-2.086,1.5H337.9V229.7h2.4c1.252,0,1.947.522,1.947,1.426a1.3,1.3,0,0,1-.835,1.252A1.33,1.33,0,0,1,342.525,233.768Zm-4.034-3.582V232.2h1.773c.9,0,1.391-.348,1.391-1.008s-.522-1.008-1.391-1.008Zm3.477,3.547c0-.73-.522-1.043-1.5-1.043h-1.947v2.086h1.947C341.412,234.777,341.968,234.464,341.968,233.734Z" transform="translate(-293.286 -229.665)"/>
    </g>
    <g id="Group_262" data-name="Group 262" transform="translate(48.043 62.705)">
      <path id="Path_8-2" data-name="Path 8" d="M214.26,229.7v5.564h-.487l-3.582-4.52v4.52H209.6V229.7h.487l3.582,4.52V229.7Z" transform="translate(-209.6 -229.665)"/>
      <path id="Path_9-2" data-name="Path 9" d="M228.2,229.7h.591v5.564H228.2Z" transform="translate(-221.732 -229.665)"/>
      <path id="Path_10-2" data-name="Path 10" d="M238.016,232.417h.556v2.121a3.115,3.115,0,0,1-2.052.7,2.818,2.818,0,1,1,2.052-4.833l-.348.382a2.333,2.333,0,1,0-1.669,3.929,2.463,2.463,0,0,0,1.46-.417Z" transform="translate(-225.255 -229.6)"/>
      <path id="Path_11-2" data-name="Path 11" d="M257.26,229.7v5.564h-.591V232.69h-3.477v2.573H252.6V229.7h.591v2.469h3.477V229.7Z" transform="translate(-237.648 -229.665)"/>
      <path id="Path_12-2" data-name="Path 12" d="M270.647,230.222H268.7V229.7h4.486v.522h-1.947v5.042h-.591Z" transform="translate(-248.149 -229.665)"/>
      <path id="Path_13-2" data-name="Path 13" d="M288.9,232.417a2.788,2.788,0,0,1,2.921-2.817,2.724,2.724,0,0,1,2.017.8l-.382.382a2.23,2.23,0,0,0-1.634-.661,2.3,2.3,0,1,0,0,4.59,2.23,2.23,0,0,0,1.634-.661l.382.383a2.624,2.624,0,0,1-2.052.8A2.759,2.759,0,0,1,288.9,232.417Z" transform="translate(-261.325 -229.6)"/>
      <path id="Path_14-2" data-name="Path 14" d="M306.7,229.7h.591v5.042h3.095v.522H306.7Z" transform="translate(-272.935 -229.665)"/>
      <path id="Path_15-2" data-name="Path 15" d="M319.7,232.964V229.8h.591v3.164c0,1.321.626,1.912,1.7,1.912s1.7-.591,1.7-1.912V229.8h.556v3.164A2.137,2.137,0,0,1,322,235.4,2.178,2.178,0,0,1,319.7,232.964Z" transform="translate(-281.415 -229.73)"/>
      <path id="Path_16-2" data-name="Path 16" d="M342.525,233.768c0,.939-.7,1.5-2.086,1.5H337.9V229.7h2.4c1.252,0,1.947.522,1.947,1.426a1.3,1.3,0,0,1-.835,1.252A1.33,1.33,0,0,1,342.525,233.768Zm-4.034-3.582V232.2h1.773c.9,0,1.391-.348,1.391-1.008s-.522-1.008-1.391-1.008Zm3.477,3.547c0-.73-.522-1.043-1.5-1.043h-1.947v2.086h1.947C341.412,234.777,341.968,234.464,341.968,233.734Z" transform="translate(-293.286 -229.665)"/>
    </g>
  </g>
</svg>
