
<?xml version="1.0"?>
<svg xmlns="http://www.w3.org/2000/svg" height="40px" viewBox="-68 0 512 512" width="40px" class=""><g><path d="m15.03125 15.03125h157.804688v-15.03125h-172.835938v403.289062h15.03125zm0 0" data-original="#000000" class="active-path" data-old_color="#000000" fill="#555555"/><path d="m187.867188 0v15.03125h172.835937v117.867188h15.03125v-132.898438zm0 0" data-original="#000000" class="active-path" data-old_color="#000000" fill="#555555"/><path d="m360.703125 416.8125h-80.15625v80.15625h-163.820313v15.03125h174.449219l84.558594-84.558594v-279.515625h-15.03125zm-65.125 69.53125v-54.5h54.5zm0 0" data-original="#000000" class="active-path" data-old_color="#000000" fill="#555555"/><path d="m15.03125 418.316406h-15.03125v93.683594h101.699219v-15.03125h-86.667969zm0 0" data-original="#000000" class="active-path" data-old_color="#000000" fill="#555555"/><path d="m40.078125 235.460938h175.34375v-195.382813h-175.34375zm130.253906-15.03125h-85.164062v-34.566407c0-15.90625 8.679687-30.183593 22.464843-37.542969 5.542969 4.367188 12.527344 6.984376 20.117188 6.984376 7.585938 0 14.570312-2.617188 20.113281-6.984376 13.789063 7.359376 22.46875 21.636719 22.46875 37.542969zm-60.117187-97.691407v-10.019531c0-9.667969 7.867187-17.53125 17.535156-17.53125s17.535156 7.863281 17.535156 17.53125v10.019531c0 9.667969-7.867187 17.535157-17.535156 17.535157s-17.535156-7.867188-17.535156-17.535157zm-55.105469-67.628906h145.28125v165.320313h-15.027344v-34.566407c0-20.605469-10.769531-39.191406-28.058593-49.472656 1.925781-4.15625 3.007812-8.777344 3.007812-13.652344v-10.019531c0-17.953125-14.609375-32.5625-32.5625-32.5625-17.957031 0-32.5625 14.609375-32.5625 32.5625v10.019531c0 4.875 1.082031 9.496094 3.007812 13.652344-17.289062 10.28125-28.058593 28.867187-28.058593 49.472656v34.566407h-15.027344zm0 0" data-original="#000000" class="active-path" data-old_color="#000000" fill="#555555"/><path d="m265.519531 50.097656v25.050782h-25.050781v45.085937h25.050781v25.050781h45.085938v-25.050781h25.050781v-45.085937h-25.050781v-25.050782zm55.105469 40.078125v15.03125h-25.046875v25.046875h-15.03125v-25.046875h-25.046875v-15.03125h25.046875v-25.046875h15.03125v25.046875zm0 0" data-original="#000000" class="active-path" data-old_color="#000000" fill="#555555"/><path d="m192.875 337.324219h30.058594v15.03125h-30.058594zm0 0" data-original="#000000" class="active-path" data-old_color="#000000" fill="#555555"/><path d="m237.964844 337.324219h70.136718v15.03125h-70.136718zm0 0" data-original="#000000" class="active-path" data-old_color="#000000" fill="#555555"/><path d="m117.730469 337.324219h60.117187v15.03125h-60.117187zm0 0" data-original="#000000" class="active-path" data-old_color="#000000" fill="#555555"/><path d="m67.632812 337.324219h35.066407v15.03125h-35.066407zm0 0" data-original="#000000" class="active-path" data-old_color="#000000" fill="#555555"/><path d="m232.953125 303.925781h75.148437v15.03125h-75.148437zm0 0" data-original="#000000" class="active-path" data-old_color="#000000" fill="#555555"/><path d="m67.632812 303.925781h90.175782v15.03125h-90.175782zm0 0" data-original="#000000" class="active-path" data-old_color="#000000" fill="#555555"/><path d="m172.835938 303.925781h15.03125v15.03125h-15.03125zm0 0" data-original="#000000" class="active-path" data-old_color="#000000" fill="#555555"/><path d="m202.894531 303.925781h15.03125v15.03125h-15.03125zm0 0" data-original="#000000" class="active-path" data-old_color="#000000" fill="#555555"/><path d="m67.632812 270.527344h50.097657v15.03125h-50.097657zm0 0" data-original="#000000" class="active-path" data-old_color="#000000" fill="#555555"/><path d="m132.757812 270.527344h120.234376v15.03125h-120.234376zm0 0" data-original="#000000" class="active-path" data-old_color="#000000" fill="#555555"/><path d="m268.023438 270.527344h40.078124v15.03125h-40.078124zm0 0" data-original="#000000" class="active-path" data-old_color="#000000" fill="#555555"/><path d="m172.835938 370.722656h15.03125v15.03125h-15.03125zm0 0" data-original="#000000" class="active-path" data-old_color="#000000" fill="#555555"/><path d="m67.632812 370.722656h90.175782v15.03125h-90.175782zm0 0" data-original="#000000" class="active-path" data-old_color="#000000" fill="#555555"/><path d="m202.894531 370.722656h15.03125v15.03125h-15.03125zm0 0" data-original="#000000" class="active-path" data-old_color="#000000" fill="#555555"/></g> </svg>
