
<?xml version="1.0"?>
<svg xmlns="http://www.w3.org/2000/svg" height="40px" viewBox="0 0 128 128" width="40px"><g><g id="Layer_3" data-name="Layer 3"><path d="m111.21 28.04c-.01 0-.01 0-.01-.01a1.768 1.768 0 0 0 -.15-.42.466.466 0 0 0 -.05-.1 1.946 1.946 0 0 0 -.27-.37l-26.63-26.63a1.946 1.946 0 0 0 -.37-.27.467.467 0 0 0 -.1-.05 1.72 1.72 0 0 0 -.77-.19h-64.37a1.746 1.746 0 0 0 -1.75 1.75v124.5a1.746 1.746 0 0 0 1.75 1.75h91a1.746 1.746 0 0 0 1.75-1.75v-97.87a1.872 1.872 0 0 0 -.03-.34zm-26.6-22.06 20.65 20.65h-20.65zm23.13 118.52h-87.5v-121h60.87v24.88a1.758 1.758 0 0 0 1.75 1.75h24.88z" data-original="#000000" class="active-path" data-old_color="#000000" fill="#555555"/><path d="m63.988 31.065a20.361 20.361 0 1 0 20.362 20.362 20.384 20.384 0 0 0 -20.362-20.362zm0 37.223a16.861 16.861 0 1 1 16.862-16.861 16.88 16.88 0 0 1 -16.862 16.861z" data-original="#000000" class="active-path" data-old_color="#000000" fill="#555555"/><path d="m69.3 45.75v-5.625a1.75 1.75 0 0 0 -1.75-1.75h-7.124a1.75 1.75 0 0 0 -1.75 1.75v5.625h-5.625a1.75 1.75 0 0 0 -1.751 1.75v7.125a1.75 1.75 0 0 0 1.75 1.75h5.625v5.625a1.75 1.75 0 0 0 1.75 1.75h7.125a1.75 1.75 0 0 0 1.75-1.75v-5.625h5.625a1.75 1.75 0 0 0 1.75-1.75v-7.125a1.75 1.75 0 0 0 -1.75-1.75zm3.875 7.125h-5.624a1.75 1.75 0 0 0 -1.75 1.75v5.625h-3.625v-5.625a1.75 1.75 0 0 0 -1.75-1.75h-5.626v-3.625h5.625a1.75 1.75 0 0 0 1.75-1.75v-5.625h3.625v5.625a1.75 1.75 0 0 0 1.75 1.75h5.625z" data-original="#000000" class="active-path" data-old_color="#000000" fill="#555555"/><path d="m97.082 88.75h-49.641a1.75 1.75 0 0 0 0 3.5h49.641a1.75 1.75 0 0 0 0-3.5z" data-original="#000000" class="active-path" data-old_color="#000000" fill="#555555"/><path d="m30.895 92.25h8.594a1.75 1.75 0 0 0 0-3.5h-8.594a1.75 1.75 0 0 0 0 3.5z" data-original="#000000" class="active-path" data-old_color="#000000" fill="#555555"/><path d="m97.082 80.583h-49.641a1.75 1.75 0 0 0 0 3.5h49.641a1.75 1.75 0 0 0 0-3.5z" data-original="#000000" class="active-path" data-old_color="#000000" fill="#555555"/><path d="m30.895 84.083h8.594a1.75 1.75 0 0 0 0-3.5h-8.594a1.75 1.75 0 0 0 0 3.5z" data-original="#000000" class="active-path" data-old_color="#000000" fill="#555555"/><path d="m97.082 96.917h-49.641a1.75 1.75 0 0 0 0 3.5h49.641a1.75 1.75 0 0 0 0-3.5z" data-original="#000000" class="active-path" data-old_color="#000000" fill="#555555"/><path d="m30.895 100.417h8.594a1.75 1.75 0 0 0 0-3.5h-8.594a1.75 1.75 0 0 0 0 3.5z" data-original="#000000" class="active-path" data-old_color="#000000" fill="#555555"/><path d="m97.082 105.083h-49.641a1.75 1.75 0 0 0 0 3.5h49.641a1.75 1.75 0 0 0 0-3.5z" data-original="#000000" class="active-path" data-old_color="#000000" fill="#555555"/><path d="m30.895 108.583h8.594a1.75 1.75 0 1 0 0-3.5h-8.594a1.75 1.75 0 0 0 0 3.5z" data-original="#000000" class="active-path" data-old_color="#000000" fill="#555555"/><path d="m97.082 113.25h-49.641a1.75 1.75 0 0 0 0 3.5h49.641a1.75 1.75 0 0 0 0-3.5z" data-original="#000000" class="active-path" data-old_color="#000000" fill="#555555"/><path d="m30.895 116.75h8.594a1.75 1.75 0 0 0 0-3.5h-8.594a1.75 1.75 0 0 0 0 3.5z" data-original="#000000" class="active-path" data-old_color="#000000" fill="#555555"/></g></g> </svg>
